<?xml version="1.0" encoding="UTF-8" standalone="no"?>
<!-- Created with Inkscape (http://www.inkscape.org/) -->

<svg
   xmlns:osb="http://www.openswatchbook.org/uri/2009/osb"
   xmlns:dc="http://purl.org/dc/elements/1.1/"
   xmlns:cc="http://creativecommons.org/ns#"
   xmlns:rdf="http://www.w3.org/1999/02/22-rdf-syntax-ns#"
   xmlns:svg="http://www.w3.org/2000/svg"
   xmlns="http://www.w3.org/2000/svg"
   xmlns:xlink="http://www.w3.org/1999/xlink"
   xmlns:sodipodi="http://sodipodi.sourceforge.net/DTD/sodipodi-0.dtd"
   xmlns:inkscape="http://www.inkscape.org/namespaces/inkscape"
   width="210mm"
   height="297mm"
   viewBox="0 0 210 297"
   version="1.1"
   id="svg8"
   inkscape:version="0.92.1 unknown"
   sodipodi:docname="CaaScade-v2.svg">
  <defs
     id="defs2">
    <linearGradient
       inkscape:collect="always"
       id="linearGradient4923">
      <stop
         style="stop-color:#1c2a38;stop-opacity:1;"
         offset="0"
         id="stop4919" />
      <stop
         style="stop-color:#1c2a38;stop-opacity:0;"
         offset="1"
         id="stop4921" />
    </linearGradient>
    <linearGradient
       inkscape:collect="always"
       id="linearGradient6464">
      <stop
         style="stop-color:#e3dedb;stop-opacity:1;"
         offset="0"
         id="stop6460" />
      <stop
         style="stop-color:#e3dedb;stop-opacity:0;"
         offset="1"
         id="stop6462" />
    </linearGradient>
    <linearGradient
       inkscape:collect="always"
       id="linearGradient6454">
      <stop
         style="stop-color:#e3dedb;stop-opacity:1;"
         offset="0"
         id="stop6450" />
      <stop
         style="stop-color:#e3dedb;stop-opacity:0;"
         offset="1"
         id="stop6452" />
    </linearGradient>
    <linearGradient
       id="linearGradient6028"
       osb:paint="solid">
      <stop
         style="stop-color:#fffefe;stop-opacity:1;"
         offset="0"
         id="stop6026" />
    </linearGradient>
    <linearGradient
       inkscape:collect="always"
       xlink:href="#linearGradient6028"
       id="linearGradient6220"
       gradientUnits="userSpaceOnUse"
       gradientTransform="matrix(1.1766894,0,0,1.1766893,-9.0296843,-28.14464)"
       x1="44.685435"
       y1="117.98201"
       x2="160.73867"
       y2="117.98201" />
    <linearGradient
       inkscape:collect="always"
       xlink:href="#linearGradient6454"
       id="linearGradient6456"
       x1="402.8027"
       y1="396.5571"
       x2="545.43689"
       y2="396.5571"
       gradientUnits="userSpaceOnUse"
       gradientTransform="matrix(0.26458333,0,0,0.26458333,47.625,-31.75)" />
    <linearGradient
       inkscape:collect="always"
       xlink:href="#linearGradient6464"
       id="linearGradient6466"
       x1="402.5446"
       y1="396.69936"
       x2="545.34097"
       y2="396.69936"
       gradientUnits="userSpaceOnUse" />
    <linearGradient
       inkscape:collect="always"
       xlink:href="#linearGradient4923"
       id="linearGradient4887"
       x1="402.69522"
       y1="397.11215"
       x2="546.10773"
       y2="397.11215"
       gradientUnits="userSpaceOnUse" />
  </defs>
  <sodipodi:namedview
     id="base"
     pagecolor="#ffffff"
     bordercolor="#666666"
     borderopacity="1.0"
     inkscape:pageopacity="0.0"
     inkscape:pageshadow="2"
     inkscape:zoom="1"
     inkscape:cx="242.65809"
     inkscape:cy="718.04871"
     inkscape:document-units="mm"
     inkscape:current-layer="g92"
     showgrid="false"
     inkscape:window-width="1366"
     inkscape:window-height="744"
     inkscape:window-x="0"
     inkscape:window-y="24"
     inkscape:window-maximized="1" />
  <metadata
     id="metadata5">
    <rdf:RDF>
      <cc:Work
         rdf:about="">
        <dc:format>image/svg+xml</dc:format>
        <dc:type
           rdf:resource="http://purl.org/dc/dcmitype/StillImage" />
        <dc:title></dc:title>
      </cc:Work>
    </rdf:RDF>
  </metadata>
  <g
     inkscape:label="Layer 1"
     inkscape:groupmode="layer"
     id="layer1">
    <g
       id="g6524">
      <g
         id="g92">
        <g
           transform="matrix(0.91390228,0,0,1.0822213,14.378808,-11.850175)"
           id="g30"
           inkscape:export-xdpi="96"
           inkscape:export-ydpi="96">
          <path
             style="fill:#000000;stroke:#4e3857;stroke-width:1.15400004;stroke-miterlimit:4;stroke-dasharray:none;stroke-opacity:0.85365858"
             d="m 47.417283,115.54871 c -4.29377,-0.79294 -8.90272,-4.13397 -10.64307,-7.71518 -2.92224,-6.01328 -1.73186,-12.255363 3.17001,-16.622803 2.85921,-2.54748 5.70489,-3.70625 9.57696,-3.89977 l 3.08563,-0.15422 0.0158,-3.50109 c 0.0252,-5.59327 2.05348,-10.146074 6.34831,-14.250011 7.31882,-6.993509 17.99043,-8.446947 27.77934,-3.783452 3.28291,1.564001 7.66171,5.926303 9.48103,9.445313 l 1.50285,2.90689 2.762747,-0.10612 c 5.8867,-0.22611 11.57092,1.97568 15.65133,6.06258 5.90625,5.91563 7.24278,13.95037 3.5122,21.113953 -1.83179,3.51743 -5.50294,7.04824 -9.00521,8.66097 -4.79328,2.20721 -5.16441,2.23067 -34.713327,2.19374 -14.74352,-0.0184 -27.57959,-0.17629 -28.5246,-0.3508 z"
             id="path4957"
             inkscape:connector-curvature="0" />
          <path
             style="fill:#f6ebf7;fill-opacity:1;stroke:#214627;stroke-width:1.15400004;stroke-miterlimit:4;stroke-dasharray:none;stroke-opacity:1"
             d="m 100.11029,112.76752 c -1.78034,-0.32333 -3.69137,-1.68569 -4.41298,-3.14599 -1.21166,-2.45202 -0.71809,-4.99733 1.3144,-6.77823 1.18552,-1.03878 2.36544,-1.51129 3.97093,-1.5902 l 1.27941,-0.0629 0.006,-1.427629 c 0.0105,-2.280753 0.85144,-4.137234 2.63223,-5.810684 3.03463,-2.851722 7.45944,-3.444386 11.51826,-1.542767 1.36121,0.637748 3.17681,2.41655 3.93116,3.851488 l 0.62314,1.185334 1.14552,-0.04327 c 2.44083,-0.0922 4.7977,0.805617 6.48958,2.47212 2.44894,2.412198 3.00311,5.688498 1.45628,8.609568 -0.75953,1.4343 -2.2817,2.87404 -3.73387,3.53166 -1.98746,0.90003 -2.14134,0.90959 -14.39333,0.89453 -6.11317,-0.008 -11.43544,-0.0719 -11.82728,-0.14304 z"
             id="path4955"
             inkscape:connector-curvature="0" />
          <text
             xml:space="preserve"
             style="font-style:normal;font-weight:normal;font-size:33.44815826px;line-height:1.25;font-family:sans-serif;letter-spacing:0px;word-spacing:0px;fill:#000000;fill-opacity:1;stroke:none;stroke-width:0.83620393"
             x="34.254585"
             y="141.66806"
             id="text4917"
             transform="scale(0.98383344,1.0164322)"><tspan
               sodipodi:role="line"
               id="tspan4915"
               x="34.254585"
               y="141.66806"
               style="font-style:normal;font-variant:normal;font-weight:normal;font-stretch:normal;line-height:25.24118423px;font-family:'Ubuntu Condensed';-inkscape-font-specification:'Ubuntu Condensed, ';letter-spacing:0.05372123px;word-spacing:-1.41371655px;fill:#360000;fill-opacity:1;stroke:none;stroke-width:0.83620393;stroke-opacity:1"
               dx="-0.12823634"
               dy="-0.11754998">CaaScade</tspan></text>
          <path
             style="fill:#f6ebf7;fill-opacity:1;stroke:#214627;stroke-width:0.85791743;stroke-miterlimit:4;stroke-dasharray:none;stroke-opacity:1"
             d="m 112.14476,76.593505 c -1.32214,-0.24063 -2.74133,-1.254534 -3.27721,-2.341327 -0.89982,-1.824855 -0.53328,-3.719142 0.9761,-5.044532 0.88041,-0.773086 1.75665,-1.12474 2.94894,-1.183468 l 0.95012,-0.04681 0.004,-1.062477 c 0.008,-1.697394 0.6323,-3.079041 1.95477,-4.324473 2.25361,-2.122336 5.5396,-2.563415 8.5538,-1.148173 1.01087,0.474631 2.35919,1.798469 2.9194,2.866393 l 0.46276,0.882156 0.85069,-0.03223 c 1.81263,-0.06862 3.56292,0.599564 4.81936,1.839814 1.81866,1.795223 2.2302,4.233529 1.08148,6.407463 -0.56405,1.067443 -1.69446,2.138936 -2.77288,2.628354 -1.47595,0.669825 -1.59023,0.67694 -10.68892,0.665731 -4.53982,-0.006 -8.4923,-0.05351 -8.78329,-0.106454 z"
             id="path4955-8"
             inkscape:connector-curvature="0" />
          <path
             style="fill:#f6ebf7;fill-opacity:1;stroke:#5a4635;stroke-width:0.61472678;stroke-miterlimit:4;stroke-dasharray:none;stroke-opacity:1"
             d="m 90.937997,109.19971 c -0.966392,-0.16903 -2.003722,-0.88121 -2.395413,-1.6446 -0.657706,-1.28181 -0.389791,-2.6124 0.713461,-3.54338 0.643519,-0.54303 1.28399,-0.79004 2.155471,-0.83129 l 0.694472,-0.0329 0.0029,-0.7463 c 0.0058,-1.19229 0.462167,-2.16278 1.428801,-3.0376 1.647233,-1.49077 4.049064,-1.80059 6.252236,-0.8065 0.738875,0.33339 1.724405,1.26328 2.133875,2.01341 l 0.33825,0.61965 0.6218,-0.0226 c 1.32491,-0.0482 2.60425,0.42114 3.52262,1.29232 1.32931,1.26101 1.63012,2.97372 0.79049,4.50074 -0.41228,0.74979 -1.23853,1.50243 -2.02679,1.8462 -1.07882,0.47051 -1.16235,0.4755 -7.812863,0.46763 -3.318294,-0.004 -6.207283,-0.0376 -6.419977,-0.0748 z"
             id="path4955-8-7"
             inkscape:connector-curvature="0" />
        </g>
        <ellipse
           style="opacity:1;fill:none;fill-opacity:1;stroke:none;stroke-width:0.69999999;stroke-linecap:square;stroke-linejoin:round;stroke-miterlimit:4;stroke-dasharray:none;stroke-opacity:1;paint-order:stroke fill markers"
           id="path4857"
           cx="105.17188"
           cy="116.68645"
           rx="69.188538"
           ry="57.282291" />
      </g>
      <path
         inkscape:connector-curvature="0"
         d="m 50.074836,142.53316 c 0.0027,0.0424 0.01577,0.0812 0.02812,0.12056 0.0051,0.014 0.0088,0.0284 0.01146,0.0431 0,0 -0.281497,0.177 -0.281497,0.177 v 0 c -0.0012,-0.0132 -0.0036,-0.026 -0.0075,-0.0386 -0.0112,-0.0413 -0.02501,-0.0816 -0.03044,-0.12488 0,0 0.279868,-0.17718 0.279868,-0.17718 z"
         id="path6490"
         style="opacity:0.5;fill:#e3dedb;fill-opacity:0;stroke:#fafafa;stroke-width:0.26354438;stroke-linecap:square;stroke-linejoin:round;stroke-miterlimit:4;stroke-dasharray:none;stroke-opacity:1;paint-order:stroke fill markers"
         inkscape:export-xdpi="96"
         inkscape:export-ydpi="96" />
    </g>
    <rect
       style="opacity:0.203;fill:none;fill-opacity:1;stroke:none;stroke-width:0.26499999;stroke-linecap:square;stroke-linejoin:round;stroke-miterlimit:4;stroke-dasharray:none;stroke-opacity:1;paint-order:stroke fill markers"
       id="rect4548"
       width="160.86667"
       height="122.2375"
       x="20.108334"
       y="58.610416"
       inkscape:export-xdpi="96"
       inkscape:export-ydpi="96" />
  </g>
</svg>
